<svg xmlns="http://www.w3.org/2000/svg" width="980" height="520">
<rect width="100%" height="100%" fill="white"/>
<text x="490" y="30" text-anchor="middle" font-size="20" font-family="Arial">Embedding Cosine Similarity Distribution</text>
<line x1="70" y1="450" x2="960" y2="450" stroke="#222" stroke-width="2"/>
<line x1="70" y1="60" x2="70" y2="450" stroke="#222" stroke-width="2"/>
<rect x="71.00" y="450.00" width="20.25" height="0.00" fill="#4C78A8"/>
<rect x="93.25" y="450.00" width="20.25" height="0.00" fill="#F58518"/>
<rect x="115.50" y="450.00" width="20.25" height="0.00" fill="#4C78A8"/>
<rect x="137.75" y="450.00" width="20.25" height="0.00" fill="#F58518"/>
<rect x="160.00" y="450.00" width="20.25" height="0.00" fill="#4C78A8"/>
<rect x="182.25" y="450.00" width="20.25" height="0.00" fill="#F58518"/>
<rect x="204.50" y="450.00" width="20.25" height="0.00" fill="#4C78A8"/>
<rect x="226.75" y="450.00" width="20.25" height="0.00" fill="#F58518"/>
<rect x="249.00" y="450.00" width="20.25" height="0.00" fill="#4C78A8"/>
<rect x="271.25" y="450.00" width="20.25" height="0.00" fill="#F58518"/>
<rect x="293.50" y="450.00" width="20.25" height="0.00" fill="#4C78A8"/>
<rect x="315.75" y="450.00" width="20.25" height="0.00" fill="#F58518"/>
<rect x="338.00" y="450.00" width="20.25" height="0.00" fill="#4C78A8"/>
<rect x="360.25" y="450.00" width="20.25" height="0.00" fill="#F58518"/>
<rect x="382.50" y="450.00" width="20.25" height="0.00" fill="#4C78A8"/>
<rect x="404.75" y="450.00" width="20.25" height="0.00" fill="#F58518"/>
<rect x="427.00" y="450.00" width="20.25" height="0.00" fill="#4C78A8"/>
<rect x="449.25" y="450.00" width="20.25" height="0.00" fill="#F58518"/>
<rect x="471.50" y="450.00" width="20.25" height="0.00" fill="#4C78A8"/>
<rect x="493.75" y="450.00" width="20.25" height="0.00" fill="#F58518"/>
<rect x="516.00" y="450.00" width="20.25" height="0.00" fill="#4C78A8"/>
<rect x="538.25" y="450.00" width="20.25" height="0.00" fill="#F58518"/>
<rect x="560.50" y="450.00" width="20.25" height="0.00" fill="#4C78A8"/>
<rect x="582.75" y="450.00" width="20.25" height="0.00" fill="#F58518"/>
<rect x="605.00" y="449.24" width="20.25" height="0.76" fill="#4C78A8"/>
<rect x="627.25" y="450.00" width="20.25" height="0.00" fill="#F58518"/>
<rect x="649.50" y="445.46" width="20.25" height="4.54" fill="#4C78A8"/>
<rect x="671.75" y="441.30" width="20.25" height="8.70" fill="#F58518"/>
<rect x="694.00" y="416.33" width="20.25" height="33.67" fill="#4C78A8"/>
<rect x="716.25" y="410.28" width="20.25" height="39.72" fill="#F58518"/>
<rect x="738.50" y="356.94" width="20.25" height="93.06" fill="#4C78A8"/>
<rect x="760.75" y="349.76" width="20.25" height="100.24" fill="#F58518"/>
<rect x="783.00" y="306.26" width="20.25" height="143.74" fill="#4C78A8"/>
<rect x="805.25" y="308.53" width="20.25" height="141.47" fill="#F58518"/>
<rect x="827.50" y="231.74" width="20.25" height="218.26" fill="#4C78A8"/>
<rect x="849.75" y="192.02" width="20.25" height="257.98" fill="#F58518"/>
<rect x="872.00" y="203.74" width="20.25" height="246.26" fill="#4C78A8"/>
<rect x="894.25" y="196.18" width="20.25" height="253.82" fill="#F58518"/>
<rect x="916.50" y="60.00" width="20.25" height="390.00" fill="#4C78A8"/>
<rect x="938.75" y="117.12" width="20.25" height="332.88" fill="#F58518"/>
<line x1="70.00" y1="450" x2="70.00" y2="455" stroke="#333" stroke-width="1"/>
<text x="70.00" y="470" text-anchor="middle" font-size="12" font-family="Arial">-1.0</text>
<line x1="292.50" y1="450" x2="292.50" y2="455" stroke="#333" stroke-width="1"/>
<text x="292.50" y="470" text-anchor="middle" font-size="12" font-family="Arial">-0.5</text>
<line x1="515.00" y1="450" x2="515.00" y2="455" stroke="#333" stroke-width="1"/>
<text x="515.00" y="470" text-anchor="middle" font-size="12" font-family="Arial">0.0</text>
<line x1="737.50" y1="450" x2="737.50" y2="455" stroke="#333" stroke-width="1"/>
<text x="737.50" y="470" text-anchor="middle" font-size="12" font-family="Arial">0.5</text>
<line x1="960.00" y1="450" x2="960.00" y2="455" stroke="#333" stroke-width="1"/>
<text x="960.00" y="470" text-anchor="middle" font-size="12" font-family="Arial">1.0</text>
<rect x="760" y="75" width="14" height="14" fill="#4C78A8"/>
<text x="782" y="87" font-size="12" font-family="Arial">same action pairs</text>
<rect x="760" y="99" width="14" height="14" fill="#F58518"/>
<text x="782" y="111" font-size="12" font-family="Arial">different action pairs</text>
</svg>