<svg xmlns="http://www.w3.org/2000/svg" width="980" height="520">
<rect width="100%" height="100%" fill="white"/>
<text x="490.0" y="30" text-anchor="middle" font-size="20" font-family="Arial">FF vs LSTM on large split</text>
<line x1="80" y1="410" x2="950" y2="410" stroke="#222" stroke-width="2"/>
<line x1="80" y1="60" x2="80" y2="410" stroke="#222" stroke-width="2"/>
<line x1="75" y1="410.00" x2="80" y2="410.00" stroke="#444" stroke-width="1"/>
<text x="70" y="414.00" text-anchor="end" font-size="12" font-family="Arial" fill="#333">0.0</text>
<line x1="80" y1="410.00" x2="950" y2="410.00" stroke="#EEE" stroke-width="1"/>
<line x1="75" y1="360.00" x2="80" y2="360.00" stroke="#444" stroke-width="1"/>
<text x="70" y="364.00" text-anchor="end" font-size="12" font-family="Arial" fill="#333">0.1</text>
<line x1="80" y1="360.00" x2="950" y2="360.00" stroke="#EEE" stroke-width="1"/>
<line x1="75" y1="310.00" x2="80" y2="310.00" stroke="#444" stroke-width="1"/>
<text x="70" y="314.00" text-anchor="end" font-size="12" font-family="Arial" fill="#333">0.2</text>
<line x1="80" y1="310.00" x2="950" y2="310.00" stroke="#EEE" stroke-width="1"/>
<line x1="75" y1="260.00" x2="80" y2="260.00" stroke="#444" stroke-width="1"/>
<text x="70" y="264.00" text-anchor="end" font-size="12" font-family="Arial" fill="#333">0.3</text>
<line x1="80" y1="260.00" x2="950" y2="260.00" stroke="#EEE" stroke-width="1"/>
<line x1="75" y1="210.00" x2="80" y2="210.00" stroke="#444" stroke-width="1"/>
<text x="70" y="214.00" text-anchor="end" font-size="12" font-family="Arial" fill="#333">0.4</text>
<line x1="80" y1="210.00" x2="950" y2="210.00" stroke="#EEE" stroke-width="1"/>
<line x1="75" y1="160.00" x2="80" y2="160.00" stroke="#444" stroke-width="1"/>
<text x="70" y="164.00" text-anchor="end" font-size="12" font-family="Arial" fill="#333">0.5</text>
<line x1="80" y1="160.00" x2="950" y2="160.00" stroke="#EEE" stroke-width="1"/>
<rect x="252.50" y="257.83" width="42.00" height="152.17" fill="#4C78A8"/>
<text x="273.50" y="251.83" text-anchor="middle" font-size="11" font-family="Arial" fill="#111">0.304</text>
<rect x="297.50" y="375.00" width="42.00" height="35.00" fill="#F58518"/>
<text x="318.50" y="369.00" text-anchor="middle" font-size="11" font-family="Arial" fill="#111">0.070</text>
<text x="297.50" y="434" text-anchor="middle" font-size="12" font-family="Arial">Feedforward</text>
<rect x="687.50" y="163.62" width="42.00" height="246.38" fill="#4C78A8"/>
<text x="708.50" y="157.62" text-anchor="middle" font-size="11" font-family="Arial" fill="#111">0.493</text>
<rect x="732.50" y="215.00" width="42.00" height="195.00" fill="#F58518"/>
<text x="753.50" y="209.00" text-anchor="middle" font-size="11" font-family="Arial" fill="#111">0.390</text>
<text x="732.50" y="434" text-anchor="middle" font-size="12" font-family="Arial">LSTM</text>
<rect x="730" y="70" width="14" height="14" fill="#4C78A8"/>
<text x="752" y="82" font-size="12" font-family="Arial">Test action accuracy</text>
<rect x="730" y="92" width="14" height="14" fill="#F58518"/>
<text x="752" y="104" font-size="12" font-family="Arial">Test success rate</text>
</svg>