<svg xmlns="http://www.w3.org/2000/svg" width="1120" height="620">
<rect width="100%" height="100%" fill="white"/>
<text x="560.0" y="34" text-anchor="middle" font-size="22" font-family="Arial">Supervised LSTM Ablation: OOD Accuracy Ranking</text>
<text x="560.0" y="56" text-anchor="middle" font-size="13" font-family="Arial" fill="#444">label format = f{fraction}-c{crop}-o{obstacles}</text>
<line x1="70" y1="440" x2="1100" y2="440" stroke="#222" stroke-width="2"/>
<line x1="70" y1="70" x2="70" y2="440" stroke="#222" stroke-width="2"/>
<line x1="65" y1="440.00" x2="70" y2="440.00" stroke="#444" stroke-width="1"/>
<text x="60" y="444.00" text-anchor="end" font-size="12" font-family="Arial">0.0</text>
<line x1="70" y1="440.00" x2="1100" y2="440.00" stroke="#EEE" stroke-width="1"/>
<line x1="65" y1="347.50" x2="70" y2="347.50" stroke="#444" stroke-width="1"/>
<text x="60" y="351.50" text-anchor="end" font-size="12" font-family="Arial">0.1</text>
<line x1="70" y1="347.50" x2="1100" y2="347.50" stroke="#EEE" stroke-width="1"/>
<line x1="65" y1="255.00" x2="70" y2="255.00" stroke="#444" stroke-width="1"/>
<text x="60" y="259.00" text-anchor="end" font-size="12" font-family="Arial">0.2</text>
<line x1="70" y1="255.00" x2="1100" y2="255.00" stroke="#EEE" stroke-width="1"/>
<line x1="65" y1="162.50" x2="70" y2="162.50" stroke="#444" stroke-width="1"/>
<text x="60" y="166.50" text-anchor="end" font-size="12" font-family="Arial">0.3</text>
<line x1="70" y1="162.50" x2="1100" y2="162.50" stroke="#EEE" stroke-width="1"/>
<line x1="65" y1="70.00" x2="70" y2="70.00" stroke="#444" stroke-width="1"/>
<text x="60" y="74.00" text-anchor="end" font-size="12" font-family="Arial">0.4</text>
<line x1="70" y1="70.00" x2="1100" y2="70.00" stroke="#EEE" stroke-width="1"/>
<rect x="92.92" y="135.58" width="40.00" height="304.42" fill="#A0CBE8"/>
<rect x="95.92" y="118.75" width="34.00" height="321.25" fill="#4C78A8"/>
<text x="112.92" y="112.75" text-anchor="middle" font-size="10" font-family="Arial">0.347</text>
<text transform="translate(112.92,456) rotate(60)" text-anchor="start" font-size="10" font-family="Arial">f1.00-c9-o1</text>
<rect x="178.75" y="200.98" width="40.00" height="239.02" fill="#A0CBE8"/>
<rect x="181.75" y="145.30" width="34.00" height="294.70" fill="#4C78A8"/>
<text x="198.75" y="139.30" text-anchor="middle" font-size="10" font-family="Arial">0.319</text>
<text transform="translate(198.75,456) rotate(60)" text-anchor="start" font-size="10" font-family="Arial">f1.00-c9-o2</text>
<rect x="264.58" y="266.28" width="40.00" height="173.72" fill="#A0CBE8"/>
<rect x="267.58" y="149.74" width="34.00" height="290.26" fill="#4C78A8"/>
<text x="284.58" y="143.74" text-anchor="middle" font-size="10" font-family="Arial">0.314</text>
<text transform="translate(284.58,456) rotate(60)" text-anchor="start" font-size="10" font-family="Arial">f0.25-c9-o1</text>
<rect x="350.42" y="264.44" width="40.00" height="175.56" fill="#A0CBE8"/>
<rect x="353.42" y="149.74" width="34.00" height="290.26" fill="#4C78A8"/>
<text x="370.42" y="143.74" text-anchor="middle" font-size="10" font-family="Arial">0.314</text>
<text transform="translate(370.42,456) rotate(60)" text-anchor="start" font-size="10" font-family="Arial">f0.25-c9-o2</text>
<rect x="436.25" y="140.12" width="40.00" height="299.88" fill="#A0CBE8"/>
<rect x="439.25" y="190.53" width="34.00" height="249.47" fill="#4C78A8"/>
<text x="456.25" y="184.53" text-anchor="middle" font-size="10" font-family="Arial">0.270</text>
<text transform="translate(456.25,456) rotate(60)" text-anchor="start" font-size="10" font-family="Arial">f1.00-c5-o1</text>
<rect x="522.08" y="203.94" width="40.00" height="236.06" fill="#A0CBE8"/>
<rect x="525.08" y="193.86" width="34.00" height="246.14" fill="#4C78A8"/>
<text x="542.08" y="187.86" text-anchor="middle" font-size="10" font-family="Arial">0.266</text>
<text transform="translate(542.08,456) rotate(60)" text-anchor="start" font-size="10" font-family="Arial">f1.00-c5-o2</text>
<rect x="607.92" y="108.94" width="40.00" height="331.06" fill="#A0CBE8"/>
<rect x="610.92" y="198.30" width="34.00" height="241.70" fill="#4C78A8"/>
<text x="627.92" y="192.30" text-anchor="middle" font-size="10" font-family="Arial">0.261</text>
<text transform="translate(627.92,456) rotate(60)" text-anchor="start" font-size="10" font-family="Arial">f0.50-c5-o1</text>
<rect x="693.75" y="115.42" width="40.00" height="324.58" fill="#A0CBE8"/>
<rect x="696.75" y="198.30" width="34.00" height="241.70" fill="#4C78A8"/>
<text x="713.75" y="192.30" text-anchor="middle" font-size="10" font-family="Arial">0.261</text>
<text transform="translate(713.75,456) rotate(60)" text-anchor="start" font-size="10" font-family="Arial">f0.50-c5-o2</text>
<rect x="779.58" y="131.70" width="40.00" height="308.30" fill="#A0CBE8"/>
<rect x="782.58" y="204.87" width="34.00" height="235.13" fill="#4C78A8"/>
<text x="799.58" y="198.87" text-anchor="middle" font-size="10" font-family="Arial">0.254</text>
<text transform="translate(799.58,456) rotate(60)" text-anchor="start" font-size="10" font-family="Arial">f0.50-c9-o2</text>
<rect x="865.42" y="123.74" width="40.00" height="316.26" fill="#A0CBE8"/>
<rect x="868.42" y="207.08" width="34.00" height="232.92" fill="#4C78A8"/>
<text x="885.42" y="201.08" text-anchor="middle" font-size="10" font-family="Arial">0.252</text>
<text transform="translate(885.42,456) rotate(60)" text-anchor="start" font-size="10" font-family="Arial">f0.50-c9-o1</text>
<rect x="951.25" y="230.49" width="40.00" height="209.51" fill="#A0CBE8"/>
<rect x="954.25" y="220.31" width="34.00" height="219.69" fill="#4C78A8"/>
<text x="971.25" y="214.31" text-anchor="middle" font-size="10" font-family="Arial">0.237</text>
<text transform="translate(971.25,456) rotate(60)" text-anchor="start" font-size="10" font-family="Arial">f0.25-c5-o2</text>
<rect x="1037.08" y="236.59" width="40.00" height="203.41" fill="#A0CBE8"/>
<rect x="1040.08" y="224.75" width="34.00" height="215.25" fill="#4C78A8"/>
<text x="1057.08" y="218.75" text-anchor="middle" font-size="10" font-family="Arial">0.233</text>
<text transform="translate(1057.08,456) rotate(60)" text-anchor="start" font-size="10" font-family="Arial">f0.25-c5-o1</text>
<rect x="830" y="84" width="14" height="14" fill="#A0CBE8"/>
<text x="852" y="96" font-size="12" font-family="Arial">IID accuracy</text>
<rect x="830" y="108" width="14" height="14" fill="#4C78A8"/>
<text x="852" y="120" font-size="12" font-family="Arial">OOD accuracy</text>
</svg>